<svg width="103" height="103" viewBox="0 0 103 103" fill="none" xmlns="http://www.w3.org/2000/svg">
<path d="M51.5 103C79.9435 103 103 79.9422 103 51.5C103 23.0566 79.9435 0 51.5 0C23.0578 0 0 23.0566 0 51.5C0 79.9422 23.0578 103 51.5 103ZM73.8175 33.6862C73.8175 32.9742 74.3943 32.3987 75.105 32.3987H75.8621C78.719 32.3987 81.0417 34.7226 81.0417 37.5783V65.3805C81.0417 68.2388 78.7178 70.5614 75.8621 70.5614H75.105C74.3943 70.5614 73.8175 69.9872 73.8175 69.2739V33.6862V33.6862ZM46.014 25.9084H60.4533C63.3115 25.9084 65.6342 28.2336 65.6342 31.0893C65.6342 31.8012 65.0574 32.3768 64.3467 32.3768C63.6347 32.3768 63.0592 31.8012 63.0592 31.0893C63.0592 29.6524 61.8901 28.4834 60.4533 28.4834H46.014C44.5771 28.4834 43.4081 29.6524 43.4081 31.0893C43.4081 31.8012 42.8313 32.3768 42.1206 32.3768C41.4099 32.3768 40.8331 31.8012 40.8331 31.0893C40.8331 28.2336 43.157 25.9084 46.014 25.9084ZM35.3921 33.6862C35.3921 32.9742 35.9689 32.3987 36.6796 32.3987H69.3679C70.0786 32.3987 70.6554 32.9742 70.6554 33.6862V69.2765C70.6554 69.9885 70.0786 70.564 69.3679 70.564H36.6796C35.9689 70.564 35.3921 69.9885 35.3921 69.2765V33.6862ZM24.9363 37.5796C24.9363 34.7226 27.2602 32.3999 30.1172 32.3999H30.9425C31.6532 32.3999 32.23 32.9755 32.23 33.6874V69.2778C32.23 69.9911 31.6532 70.5653 30.9425 70.5653H30.1172C27.2602 70.5653 24.9363 68.2401 24.9363 65.3844V37.5796V37.5796Z" fill="#DB324A"/>
</svg>
