<?xml version="1.0" encoding="iso-8859-1"?>
<!-- Generator: Adobe Illustrator 19.0.0, SVG Export Plug-In . SVG Version: 6.00 Build 0)  -->
<svg version="1.1" id="Capa_1" xmlns="http://www.w3.org/2000/svg" xmlns:xlink="http://www.w3.org/1999/xlink" x="0px" y="0px"
	 viewBox="0 0 405.333 405.333" style="enable-background:new 0 0 405.333 405.333;" xml:space="preserve">
<g>
	<g>
		<path d="M202.667,0C108.373,0,32,10.667,32,85.333V288c0,41.28,33.493,74.667,74.667,74.667l-32,32v10.667h256v-10.667l-32-32
			c41.28,0,74.667-33.387,74.667-74.667V85.333C373.333,10.667,296.96,0,202.667,0z M106.667,320c-17.707,0-32-14.293-32-32
			s14.293-32,32-32s32,14.293,32,32S124.373,320,106.667,320z M181.333,192H74.667V85.333h106.667V192z M298.667,320
			c-17.707,0-32-14.293-32-32s14.293-32,32-32s32,14.293,32,32S316.373,320,298.667,320z M330.667,192H224V85.333h106.667V192z"/>
	</g>
</g>
<g>
</g>
<g>
</g>
<g>
</g>
<g>
</g>
<g>
</g>
<g>
</g>
<g>
</g>
<g>
</g>
<g>
</g>
<g>
</g>
<g>
</g>
<g>
</g>
<g>
</g>
<g>
</g>
<g>
</g>
</svg>
