<svg id="Capa_1" enable-background="new 0 0 512 512" height="512" viewBox="0 0 512 512" width="512" xmlns="http://www.w3.org/2000/svg"><g><g><path d="m504.5 113.428c4.142 0 7.5-3.357 7.5-7.5v-56c0-4.143-3.358-7.5-7.5-7.5h-497c-4.142 0-7.5 3.357-7.5 7.5v343.45c0 4.143 3.358 7.5 7.5 7.5h346.057v61.193c0 2.626 1.373 5.061 3.621 6.419 2.247 1.357 5.042 1.441 7.366.222l36.92-19.384 36.92 19.384c1.094.574 2.291.859 3.486.859 1.346 0 2.69-.362 3.88-1.081 2.248-1.358 3.621-3.793 3.621-6.419v-61.193h55.13c4.142 0 7.5-3.357 7.5-7.5v-252.45c0-4.143-3.358-7.5-7.5-7.5s-7.5 3.357-7.5 7.5v244.95h-47.63v-1.453c5.838-4.539 11.018-9.881 15.371-15.867h7.429c4.142 0 7.5-3.357 7.5-7.5v-124.369c0-4.143-3.358-7.5-7.5-7.5s-7.5 3.357-7.5 7.5v39.992c-14.236-19.512-37.259-32.224-63.207-32.224-43.126 0-78.211 35.086-78.211 78.212 0 10.966 2.278 21.407 6.371 30.889h-282.294v-54.229c0-4.143-3.358-7.5-7.5-7.5s-7.5 3.357-7.5 7.5v61.729c0 4.143 3.358 7.5 7.5 7.5h298.356c4.353 5.986 9.532 11.328 15.37 15.867v1.453h-338.556v-328.45h482v48.5c0 4.143 3.358 7.5 7.5 7.5zm-99.55 320.789c-2.183-1.146-4.79-1.146-6.973 0l-29.42 15.446v-56.068c10.01 4.663 21.155 7.284 32.907 7.284 11.751 0 22.896-2.621 32.906-7.284v56.067zm-3.487-174.759c34.79 0 63.102 28.253 63.207 63.02v.385c-.105 34.766-28.416 63.019-63.207 63.019-34.855 0-63.211-28.356-63.211-63.211 0-34.857 28.356-63.213 63.211-63.213z"/><path d="m326.711 154.401c4.142 0 7.5-3.357 7.5-7.5v-32.325c0-4.143-3.358-7.5-7.5-7.5h-141.422c-4.142 0-7.5 3.357-7.5 7.5v32.325c0 4.143 3.358 7.5 7.5 7.5zm-133.922-32.325h126.423v17.325h-126.423z"/><path d="m394.392 171.726h-276.784c-4.142 0-7.5 3.357-7.5 7.5s3.358 7.5 7.5 7.5h276.784c4.142 0 7.5-3.357 7.5-7.5s-3.358-7.5-7.5-7.5z"/><path d="m401.892 211.551c0-4.143-3.358-7.5-7.5-7.5h-276.784c-4.142 0-7.5 3.357-7.5 7.5s3.358 7.5 7.5 7.5h276.784c4.142 0 7.5-3.357 7.5-7.5z"/><path d="m290.774 243.876c0-4.143-3.358-7.5-7.5-7.5h-165.666c-4.142 0-7.5 3.357-7.5 7.5s3.358 7.5 7.5 7.5h165.667c4.142 0 7.499-3.357 7.499-7.5z"/><path d="m172.157 268.702h-54.549c-4.142 0-7.5 3.357-7.5 7.5s3.358 7.5 7.5 7.5h54.549c4.142 0 7.5-3.357 7.5-7.5s-3.358-7.5-7.5-7.5z"/><path d="m172.157 301.027h-54.549c-4.142 0-7.5 3.357-7.5 7.5s3.358 7.5 7.5 7.5h54.549c4.142 0 7.5-3.357 7.5-7.5s-3.358-7.5-7.5-7.5z"/><path d="m472.17 209.189c4.142 0 7.5-3.357 7.5-7.5v-119.44c0-4.143-3.358-7.5-7.5-7.5h-432.34c-4.142 0-7.5 3.357-7.5 7.5v182.08c0 4.143 3.358 7.5 7.5 7.5s7.5-3.357 7.5-7.5v-174.58h417.34v111.94c0 4.143 3.358 7.5 7.5 7.5z"/><path d="m401.463 368.555c25.302 0 45.886-20.584 45.886-45.886s-20.584-45.887-45.886-45.887-45.886 20.585-45.886 45.887 20.585 45.886 45.886 45.886zm0-76.772c17.031 0 30.886 13.855 30.886 30.887 0 17.03-13.855 30.886-30.886 30.886s-30.886-13.855-30.886-30.886c0-17.032 13.856-30.887 30.886-30.887z"/></g></g></svg>