<svg height="512pt" viewBox="-31 0 512 512" width="512pt" xmlns="http://www.w3.org/2000/svg"><path d="m448.65625 147.746094c-1.207031-4.511719-4.101562-8.285156-8.148438-10.621094l-14.714843-8.496094c-4.046875-2.335937-8.761719-2.957031-13.277344-1.746094-4.511719 1.207032-8.285156 4.101563-10.621094 8.148438l-8.78125 15.207031c-3.726562-1.75-7.910156-2.136719-11.9375-1.058593-4.511719 1.210937-8.285156 4.105468-10.621093 8.152343l-.554688.957031v-64.789062c0-20.679688-16.820312-37.5-37.5-37.5h-54.699219c-1.222656-8.464844-8.503906-15-17.300781-15h-25.5v-18.5c0-12.40625-10.09375-22.5-22.5-22.5h-55c-12.40625 0-22.5 10.09375-22.5 22.5v18.5h-25.5c-8.796875 0-16.082031 6.535156-17.300781 15h-54.699219c-20.679688 0-37.5 16.820312-37.5 37.5v381c0 20.679688 16.820312 37.5 37.5 37.5h234.046875c4.140625 0 7.5-3.355469 7.5-7.5s-3.359375-7.5-7.5-7.5h-234.046875c-12.40625 0-22.5-10.09375-22.5-22.5v-381c0-12.40625 10.09375-22.5 22.5-22.5h54.5v36.5c0 9.648438 7.851562 17.5 17.5 17.5h151c9.648438 0 17.5-7.851562 17.5-17.5v-7h47.5v134.867188l-76.316406 132.183593c-2.757813 4.773438-4.007813 10.203125-3.613282 15.703125l3.34375 46.851563c.292969 4.097656 2.582032 7.789062 6.121094 9.875 1.953125 1.148437 4.144532 1.730469 6.347656 1.730469 1.789063 0 3.582032-.386719 5.253907-1.160157l43.117187-19.996093c5.164063-2.394532 9.398438-6.265626 12.242188-11.191407l3.503906-6.066406v64.203125h-281v-367h20c4.140625 0 7.5-3.355469 7.5-7.5s-3.359375-7.5-7.5-7.5h-22.5c-6.894531 0-12.5 5.605469-12.5 12.5v372c0 6.894531 5.605469 12.5 12.5 12.5h286c6.890625 0 12.5-5.605469 12.5-12.5v-92.6875l14.5-25.113281v122.300781c0 12.40625-10.09375 22.5-22.5 22.5h-25.957031c-4.140625 0-7.5 3.355469-7.5 7.5 0 4.140625 3.359375 7.5 7.5 7.5h25.957031c20.675781 0 37.5-16.824219 37.5-37.5v-148.28125l63.273438-109.59375 9.996093-17.3125c2.335938-4.046875 2.957031-8.761719 1.746094-13.273438-1.078125-4.027343-3.503906-7.453124-6.886719-9.808593l8.78125-15.207031c2.335938-4.046876 2.957032-8.761719 1.746094-13.277344zm-33.773438-5.214844c.6875-1.191406 2.214844-1.601562 3.410157-.914062l14.714843 8.496093c.777344.449219 1.0625 1.144531 1.164063 1.515625.097656.375.199219 1.113282-.25 1.894532l-8.746094 15.144531-19.035156-10.988281zm-31.339843 22.300781c.449219-.777343 1.144531-1.0625 1.515625-1.160156.375-.105469 1.113281-.203125 1.890625.246094l42.414062 24.488281c.78125.449219 1.066407 1.140625 1.164063 1.515625.101562.371094.199218 1.113281-.25 1.890625l-6.246094 10.816406-46.730469-26.980468zm-233.542969-142.332031c0-4.136719 3.363281-7.5 7.5-7.5h55c4.136719 0 7.5 3.363281 7.5 7.5v18.5h-70zm113 85c0 1.378906-1.121094 2.5-2.5 2.5h-151c-1.378906 0-2.5-1.121094-2.5-2.5v-49c0-1.378906 1.121094-2.5 2.5-2.5h151c1.378906 0 2.5 1.121094 2.5 2.5zm65-22h-50v-14.5h54.5c12.40625 0 22.5 10.09375 22.5 22.5v90.773438l-14.5 25.113281v-111.386719c0-6.894531-5.605469-12.5-12.5-12.5zm41.800781 103.140625 46.730469 26.980469-91.945312 159.257812-46.734376-26.980468zm-60.792969 213.222656c-1.292968 2.238281-3.21875 3.996094-5.5625 5.082031v.003907l-39.828124 18.46875-3.085938-43.230469c-.179688-2.5.390625-4.964844 1.644531-7.132812l8.175781-14.167969 46.734376 26.980469zm0 0"/><path d="m77.46875 418.4375c1.425781 1.269531 3.207031 1.890625 4.976562 1.890625 2.070313 0 4.128907-.851563 5.609376-2.519531l14.871093-16.742188 11.511719 13.730469c2.308594 2.757813 5.695312 4.382813 9.289062 4.46875 3.597657.0625 7.050782-1.382813 9.484376-4.027344l13.84375-15.03125 15.34375 17.367188c2.746093 3.105469 7.484374 3.398437 10.585937.65625 3.105469-2.742188 3.398437-7.480469.65625-10.585938l-17.179687-19.445312c-2.339844-2.648438-5.707032-4.1875-9.238282-4.222657-.042968-.003906-.085937-.003906-.128906-.003906-3.488281 0-6.832031 1.464844-9.195312 4.03125l-13.792969 14.976563-11.546875-13.769531c-2.335938-2.785157-5.761719-4.414063-9.402344-4.46875-3.640625-.082032-7.105469 1.480468-9.519531 4.199218l-16.792969 18.90625c-2.753906 3.097656-2.472656 7.839844.625 10.589844zm0 0"/><path d="m298.75 165.5c0-4.144531-3.359375-7.5-7.5-7.5h-213c-4.140625 0-7.5 3.355469-7.5 7.5s3.359375 7.5 7.5 7.5h213c4.140625 0 7.5-3.355469 7.5-7.5zm0 0"/><path d="m79.25 213h89c4.140625 0 7.5-3.355469 7.5-7.5s-3.359375-7.5-7.5-7.5h-89c-4.140625 0-7.5 3.355469-7.5 7.5s3.359375 7.5 7.5 7.5zm0 0"/><path d="m245.75 205.5c0-4.144531-3.359375-7.5-7.5-7.5h-35c-4.140625 0-7.5 3.355469-7.5 7.5s3.359375 7.5 7.5 7.5h35c4.140625 0 7.5-3.355469 7.5-7.5zm0 0"/><path d="m79.25 253h72c4.140625 0 7.5-3.355469 7.5-7.5s-3.359375-7.5-7.5-7.5h-72c-4.140625 0-7.5 3.355469-7.5 7.5s3.359375 7.5 7.5 7.5zm0 0"/><path d="m217.25 238h-34c-4.140625 0-7.5 3.355469-7.5 7.5s3.359375 7.5 7.5 7.5h34c4.140625 0 7.5-3.355469 7.5-7.5s-3.359375-7.5-7.5-7.5zm0 0"/><path d="m79.25 293h52c4.140625 0 7.5-3.355469 7.5-7.5s-3.359375-7.5-7.5-7.5h-52c-4.140625 0-7.5 3.355469-7.5 7.5s3.359375 7.5 7.5 7.5zm0 0"/><path d="m224.75 285.5c0-4.144531-3.359375-7.5-7.5-7.5h-54c-4.140625 0-7.5 3.355469-7.5 7.5s3.359375 7.5 7.5 7.5h54c4.140625 0 7.5-3.355469 7.5-7.5zm0 0"/><path d="m79.25 333h52c4.140625 0 7.5-3.355469 7.5-7.5s-3.359375-7.5-7.5-7.5h-52c-4.140625 0-7.5 3.355469-7.5 7.5s3.359375 7.5 7.5 7.5zm0 0"/></svg>