<?xml version="1.0" encoding="iso-8859-1"?>
<!-- Generator: Adobe Illustrator 19.0.0, SVG Export Plug-In . SVG Version: 6.00 Build 0)  -->
<svg version="1.1" id="Layer_1" xmlns="http://www.w3.org/2000/svg" xmlns:xlink="http://www.w3.org/1999/xlink" x="0px" y="0px"
	 viewBox="0 0 512 512" style="enable-background:new 0 0 512 512;" xml:space="preserve">
<g>
	<g>
		<g>
			<path d="M320.555,234.667h42.667c5.888,0,10.667-4.779,10.667-10.667v-42.667c0-5.888-4.779-10.667-10.667-10.667h-42.667
				c-5.888,0-10.667,4.779-10.667,10.667V224C309.888,229.888,314.667,234.667,320.555,234.667z M352.555,192v21.333h-21.333V192
				H352.555z"/>
			<path d="M149.888,405.333h42.667c5.888,0,10.667-4.779,10.667-10.667V352c0-5.888-4.779-10.667-10.667-10.667h-42.667
				c-5.888,0-10.667,4.779-10.667,10.667v42.667C139.221,400.555,144,405.333,149.888,405.333z M160.555,362.667h21.333V384h-21.333
				V362.667z"/>
			<path d="M149.888,149.333h42.667c5.888,0,10.667-4.779,10.667-10.667V96c0-5.888-4.779-10.667-10.667-10.667h-42.667
				c-5.888,0-10.667,4.779-10.667,10.667v42.667C139.221,144.555,144,149.333,149.888,149.333z M160.555,106.667h21.333V128h-21.333
				V106.667z"/>
			<path d="M447.445,490.667h-30.891V53.333c0-5.888-4.779-10.667-10.667-10.667h-32v-32C373.888,4.779,369.109,0,363.221,0H149.888
				C144,0,139.221,4.779,139.221,10.667v32h-32c-5.888,0-10.667,4.779-10.667,10.667v437.333h-32
				c-5.888,0-10.667,4.779-10.667,10.667c0,5.888,4.779,10.667,10.667,10.667h128c5.888,0,10.667-4.779,10.667-10.667V448h106.667
				v53.333c0,5.888,4.779,10.667,10.667,10.667h126.891c5.888,0,10.667-4.779,10.667-10.667
				C458.112,495.445,453.333,490.667,447.445,490.667z M160.555,21.333h192v21.333h-192V21.333z M395.221,490.667h-64v-53.333
				c0-5.888-4.779-10.667-10.667-10.667h-128c-5.888,0-10.667,4.779-10.667,10.667v53.333h-64V64h277.333V490.667z"/>
			<path d="M235.221,405.333h42.667c5.888,0,10.667-4.779,10.667-10.667V352c0-5.888-4.779-10.667-10.667-10.667h-42.667
				c-5.888,0-10.667,4.779-10.667,10.667v42.667C224.555,400.555,229.333,405.333,235.221,405.333z M245.888,362.667h21.333V384
				h-21.333V362.667z"/>
			<path d="M320.555,149.333h42.667c5.888,0,10.667-4.779,10.667-10.667V96c0-5.888-4.779-10.667-10.667-10.667h-42.667
				c-5.888,0-10.667,4.779-10.667,10.667v42.667C309.888,144.555,314.667,149.333,320.555,149.333z M352.555,106.667V128h-21.333
				v-21.333H352.555z"/>
			<path d="M149.888,234.667h42.667c5.888,0,10.667-4.779,10.667-10.667v-42.667c0-5.888-4.779-10.667-10.667-10.667h-42.667
				c-5.888,0-10.667,4.779-10.667,10.667V224C139.221,229.888,144,234.667,149.888,234.667z M160.555,192h21.333v21.333h-21.333V192
				z"/>
			<path d="M235.221,320h42.667c5.888,0,10.667-4.779,10.667-10.667v-42.667c0-5.888-4.779-10.667-10.667-10.667h-42.667
				c-5.888,0-10.667,4.779-10.667,10.667v42.667C224.555,315.221,229.333,320,235.221,320z M245.888,277.333h21.333v21.333h-21.333
				V277.333z"/>
			<path d="M235.221,149.333h42.667c5.888,0,10.667-4.779,10.667-10.667V96c0-5.888-4.779-10.667-10.667-10.667h-42.667
				c-5.888,0-10.667,4.779-10.667,10.667v42.667C224.555,144.555,229.333,149.333,235.221,149.333z M245.888,106.667h21.333V128
				h-21.333V106.667z"/>
			<path d="M235.221,234.667h42.667c5.888,0,10.667-4.779,10.667-10.667v-42.667c0-5.888-4.779-10.667-10.667-10.667h-42.667
				c-5.888,0-10.667,4.779-10.667,10.667V224C224.555,229.888,229.333,234.667,235.221,234.667z M245.888,192h21.333v21.333h-21.333
				V192z"/>
			<path d="M320.555,405.333h42.667c5.888,0,10.667-4.779,10.667-10.667V352c0-5.888-4.779-10.667-10.667-10.667h-42.667
				c-5.888,0-10.667,4.779-10.667,10.667v42.667C309.888,400.555,314.667,405.333,320.555,405.333z M352.555,362.667V384h-21.333
				v-21.333H352.555z"/>
			<path d="M149.888,320h42.667c5.888,0,10.667-4.779,10.667-10.667v-42.667c0-5.888-4.779-10.667-10.667-10.667h-42.667
				c-5.888,0-10.667,4.779-10.667,10.667v42.667C139.221,315.221,144,320,149.888,320z M160.555,277.333h21.333v21.333h-21.333
				V277.333z"/>
			<path d="M320.555,320h42.667c5.888,0,10.667-4.779,10.667-10.667v-42.667c0-5.888-4.779-10.667-10.667-10.667h-42.667
				c-5.888,0-10.667,4.779-10.667,10.667v42.667C309.888,315.221,314.667,320,320.555,320z M352.555,277.333v21.333h-21.333v-21.333
				H352.555z"/>
		</g>
	</g>
</g>
<g>
</g>
<g>
</g>
<g>
</g>
<g>
</g>
<g>
</g>
<g>
</g>
<g>
</g>
<g>
</g>
<g>
</g>
<g>
</g>
<g>
</g>
<g>
</g>
<g>
</g>
<g>
</g>
<g>
</g>
</svg>
