<svg height="512pt" viewBox="-3 0 512 512.00144" width="512pt" xmlns="http://www.w3.org/2000/svg"><path d="m399.558594 260.554688c4.140625 0 7.5-3.355469 7.5-7.5v-16.839844c0-4.144532-3.359375-7.5-7.5-7.5-4.144532 0-7.5 3.355468-7.5 7.5v16.839844c0 4.144531 3.355468 7.5 7.5 7.5zm0 0"/><path d="m483.136719 261.828125h-20.582031c-5.269532-20.632813-14.902344-40.257813-28.066407-57.085937-13.261719-16.949219-30.171875-31.164063-49.109375-41.316407v-54.425781c0-4.546875-1.960937-8.875-5.382812-11.875-3.410156-2.992188-7.941406-4.371094-12.4375-3.78125-29.507813 3.902344-53.847656 23.964844-63.457032 51.777344h-7.914062c.121094-1.699219.183594-3.40625.183594-5.128906 0-37.933594-30.851563-68.792969-68.777344-68.792969-37.933594 0-68.792969 30.859375-68.792969 68.792969 0 5.253906.609375 10.433593 1.773438 15.453124-27.402344 10.476563-51.203125 28.285157-69.148438 51.816407-2.511719 3.292969-1.878906 8 1.417969 10.511719 1.355469 1.035156 2.953125 1.535156 4.539062 1.535156 2.261719 0 4.492188-1.015625 5.972657-2.949219 16.160156-21.191406 37.554687-37.253906 62.1875-46.753906 3.351562 7 7.867187 13.425781 13.371093 18.964843-.785156.199219-1.566406.410157-2.347656.625-3.992187 1.105469-6.332031 5.234376-5.230468 9.230469.921874 3.320313 3.9375 5.5 7.226562 5.5.660156 0 1.335938-.089843 2.003906-.273437 5.558594-1.539063 11.261719-2.636719 16.949219-3.265625 8.558594-.941407 3.589844-.65625 90.566406-.664063 4.144531 0 7.5-3.355468 7.5-7.5 0-4.140625-3.355469-7.5-7.5-7.5h-8.175781c6.164062-7.175781 10.757812-15.539062 13.503906-24.601562h16.238282c3.402343 0 6.378906-2.289063 7.25-5.578125 6.570312-24.785157 27.226562-42.96875 52.617187-46.324219.082031-.015625.332031-.042969.589844.183594.183593.160156.273437.359375.273437.601562v58.988282c0 2.847656 1.609375 5.449218 4.160156 6.714843 38.007813 18.898438 65.945313 54.855469 74.734376 96.1875.734374 3.460938 3.792968 5.9375 7.335937 5.9375h26.527344c3.828125 0 6.941406 3.113281 6.941406 6.9375v55.511719c0 3.820312-3.113281 6.929688-6.941406 6.929688h-28.75c-5.742188 0-10.921875 3.421874-13.199219 8.734374-2.230469 5.234376-4.808594 10.398438-7.667969 15.339844-2.078125 3.582032-.855469 8.171875 2.730469 10.246094 1.183594.6875 2.476562 1.011719 3.75 1.011719 2.589844 0 5.109375-1.34375 6.496094-3.742188 3.101562-5.351562 5.902344-10.9375 8.324218-16.589843h28.316407c12.097656 0 21.941406-9.835938 21.941406-21.929688v-55.511719c0-12.097656-9.84375-21.941406-21.941406-21.941406zm-284.679688-76.609375c-15.265625-9.867188-24.660156-26.984375-24.660156-45.226562 0-29.660157 24.132813-53.789063 53.792969-53.789063 29.65625 0 53.78125 24.128906 53.78125 53.789063 0 3.609374-.351563 7.152343-1.035156 10.59375-.089844.328124-.160157.664062-.207032 1.007812-2.933594 13.460938-10.933594 25.300781-22.667968 33.128906-46.515626.15625-49.46875-.359375-59.003907.496094zm0 0"/><path d="m426.253906 394.132812c-3.054687-2.792968-7.800781-2.582031-10.59375.476563-6.789062 7.421875-14.390625 14.132813-22.59375 19.941406-1.917968 1.355469-3.089844 3.53125-3.164062 5.878907-.527344 16.484374-2.1875 34.84375-4.933594 54.5625-1.75 12.570312-12.609375 22.007812-25.292969 22.007812h-.136719c-12.425781-.066406-23.144531-9.539062-25.164062-22.136719-1.339844-9.664062-2.421875-19.03125-3.222656-27.847656-.429688-4.660156-.785156-9.171875-1.0625-13.414063-.292969-4.585937-.507813-9.074218-.644532-13.339843-.128906-4.140625-3.632812-7.417969-7.730468-7.257813-4.140625.128906-7.390625 3.59375-7.261719 7.730469.140625 4.425781.363281 9.078125.667969 13.828125.117187 1.824219.25 3.695312.398437 5.601562-1.074219.023438-2.144531.039063-3.203125.039063h-97.460937c-5.011719 0-10.214844-.292969-15.472657-.871094-2.003906-.222656-4.011718.375-5.570312 1.652344-1.558594 1.273437-2.539062 3.125-2.71875 5.132813-.835938 9.316406-1.957031 19.03125-3.328125 28.875-1.746094 12.546874-12.617187 22.007812-25.289063 22.007812-12.667968 0-23.542968-9.460938-25.289062-22.007812-.03125-.207032-.058594-.414063-.085938-.621094-.011718-.074219-.023437-.152344-.03125-.226563-.011718-.070312-.019531-.140625-.03125-.210937-1.484374-10.816406-3.195312-25.378906-4.171874-40.792969-1.929688-31.125.21875-49.851563 2.078124-59.445313.785157-4.066406-1.871093-8-5.9375-8.789062-4.070312-.785156-8.003906 1.871094-8.789062 5.9375-1.757812 9.074219-2.6875 19.160156-3.015625 29.667969-27.011719-26.191407-42.285156-61.832031-42.386719-99.96875-.003906-.617188 0-1.230469.007813-1.847657 0-.003906 0-.007812 0-.011718 0-.070313 0-.140625 0-.210938.238281-19.617187 4.585937-38.59375 12.945312-56.4375 1.757813-3.753906.140625-8.21875-3.609375-9.976562-3.753906-1.753906-8.214844-.136719-9.972656 3.613281-8.226562 17.5625-12.953125 36.117187-14.097656 55.277344-21.621094.34375-36.820313 4.9375-47.519532 14.261719-10.738281 9.382812-15.027343 22.769531-11.1875 34.945312 5.730469 18.164062 26.824219 24.257812 39.628907 11.191406 4.582031-4.675781 6.769531-10.792968 6.003906-16.789062-.527344-4.109375-4.277344-7.007813-8.390625-6.488282-4.109375.523438-7.015625 4.28125-6.488281 8.390626.257812 2.007812-1.199219 3.738281-1.835938 4.386718-1.683593 1.71875-4.070312 2.691406-6.074219 2.476563-3.964843-.425781-7.152343-3.296875-8.535156-7.679688-2.050781-6.5.472656-13.652343 6.742188-19.128906 7.730468-6.742187 20.027344-10.210937 37.488281-10.554687 1.640625 44.878906 22.296875 86.21875 57.316406 114.613281.574219 18.488281 2.527344 38.097656 5.089844 56.484375 2.773437 19.921875 20.035156 34.941406 40.148437 34.941406 20.113282 0 37.371094-15.019531 40.144532-34.941406 1.042968-7.492188 1.945312-14.917969 2.691406-22.160156 3.226562.203124 6.414062.304687 9.542969.304687h97.457031c1.503906 0 3.023438-.023437 4.550781-.066406.71875 6.9375 1.578125 14.046875 2.566407 21.207031.03125.234375.066406.472656.105468.707031v.007813c.011719.074218.023438.148437.035156.222656 3.1875 19.753906 20.171876 34.613281 39.886719 34.71875.074219 0 .144531.003906.21875 0 20.128907 0 37.367188-14.984375 40.148438-34.9375 2.617187-18.796875 4.273437-36.425781 4.933593-52.46875 7.925782-5.902344 15.300782-12.570312 21.96875-19.863281 2.796876-3.058594 2.585938-7.800781-.472656-10.597657zm0 0"/><path d="m232.769531 132.488281h-10.363281c-2.269531 0-4.117188-1.847656-4.117188-4.117187 0-2.265625 1.847657-4.113282 4.117188-4.113282h19.832031c4.144531 0 7.5-3.355468 7.5-7.5 0-4.140624-3.355469-7.5-7.5-7.5h-6.035156v-3.710937c0-4.144531-3.355469-7.5-7.5-7.5-4.140625 0-7.5 3.355469-7.5 7.5v3.75c-9.980469.621094-17.914063 8.941406-17.914063 19.078125 0 10.539062 8.574219 19.113281 19.117188 19.113281h10.363281c2.265625 0 4.113281 1.847657 4.113281 4.113281 0 2.269532-1.847656 4.113282-4.113281 4.113282h-19.835937c-4.140625 0-7.5 3.359375-7.5 7.5 0 4.144531 3.359375 7.5 7.5 7.5h8.269531v3.714844c0 4.140624 3.359375 7.5 7.5 7.5 4.144531 0 7.5-3.359376 7.5-7.5v-4.023438c8.90625-1.621094 15.679687-9.4375 15.679687-18.804688 0-10.539062-8.574218-19.113281-19.113281-19.113281zm0 0"/><path d="m92.261719 137.574219c37.929687 0 68.789062-30.855469 68.789062-68.789063 0-37.929687-30.859375-68.785156-68.789062-68.785156-13.78125 0-27.082031 4.0625-38.464844 11.753906-3.433594 2.316406-4.335937 6.976563-2.015625 10.410156 2.316406 3.433594 6.980469 4.335938 10.414062 2.019532 8.890626-6.007813 19.289063-9.183594 30.066407-9.183594 29.660156 0 53.789062 24.128906 53.789062 53.785156 0 29.660156-24.128906 53.789063-53.789062 53.789063-29.65625 0-53.785157-24.128907-53.785157-53.789063 0-8.601562 1.96875-16.816406 5.847657-24.417968 1.882812-3.6875.421875-8.207032-3.269531-10.089844-3.6875-1.882813-8.203126-.421875-10.089844 3.269531-4.898438 9.59375-7.488282 20.398437-7.488282 31.238281 0 37.933594 30.855469 68.789063 68.785157 68.789063zm0 0"/><path d="m93.378906 26.847656c-4.140625 0-7.5 3.355469-7.5 7.5v3.75c-9.980468.621094-17.910156 8.941406-17.910156 19.078125 0 10.539063 8.570312 19.113281 19.113281 19.113281h10.363281c2.265626 0 4.113282 1.84375 4.113282 4.113282 0 2.269531-1.847656 4.113281-4.113282 4.113281h-19.832031c-4.144531 0-7.5 3.355469-7.5 7.5s3.355469 7.5 7.5 7.5h8.269531v3.710937c0 4.144532 3.355469 7.5 7.5 7.5 4.140626 0 7.5-3.355468 7.5-7.5v-4.019531c8.902344-1.621093 15.675782-9.4375 15.675782-18.804687 0-10.539063-8.574219-19.113282-19.113282-19.113282h-10.363281c-2.269531 0-4.113281-1.847656-4.113281-4.113281 0-2.269531 1.84375-4.113281 4.113281-4.113281h19.832031c4.144532 0 7.5-3.359375 7.5-7.5 0-4.144531-3.355468-7.5-7.5-7.5h-6.03125v-3.714844c-.003906-4.144531-3.359374-7.5-7.503906-7.5zm0 0"/></svg>