<svg width="512" height="512" viewBox="0 0 512 512" fill="none" xmlns="http://www.w3.org/2000/svg">
<path d="M504.5 256C504.5 355.85 445.6 441.95 360.65 481.45C360.58 480.94 360.5 480.42 360.4 479.91L352.41 437.52L336.25 351.86L333.31 336.23L327.5 305.42L399.26 346.71C417.48 315.09 413.39 274.02 386.68 246.58C370.51 229.97 349.13 221.52 327.64 221.28L426.49 193.21C415.96 156.04 381.79 128.81 341.26 128.81C300.71 128.81 266.53 156.04 256 193.21C245.47 156.04 211.29 128.81 170.74 128.81C130.21 128.81 96.04 156.04 85.51 193.21L185.33 221.55C165.81 223.1 146.75 231.45 132.01 246.58C105.31 274.02 101.21 315.09 119.43 346.71L190.46 305.84L184.65 336.65L181.78 351.86L165.62 437.52L157.63 479.91C157.37 481.29 157.19 482.67 157.09 484.03C69.06 445.8 7.5 358.09 7.5 256C7.5 118.76 118.76 7.5 256 7.5C393.24 7.5 504.5 118.76 504.5 256V256Z" fill="#F83C3C"/>
<path d="M256 0C113.624 0 0 115.427 0 256C0 357.622 60.106 450.088 154.102 490.909C155.059 491.324 156.076 491.53 157.089 491.53C158.439 491.53 159.783 491.166 160.97 490.448C163.05 489.191 164.391 487.004 164.57 484.581C164.65 483.498 164.795 482.393 165 481.299L197.83 307.23C198.373 304.352 197.19 301.421 194.803 299.726C192.415 298.03 189.258 297.879 186.72 299.34L122.511 336.285C109.82 308.104 115.486 274.318 137.383 251.814C150.274 238.582 167.513 230.489 185.925 229.027C189.544 228.739 192.437 225.902 192.795 222.289C193.153 218.677 190.872 215.327 187.38 214.335L95.108 188.138C107.063 157.281 137.164 136.31 170.742 136.31C206.861 136.31 238.954 160.549 248.786 195.254C249.7 198.482 252.647 200.71 256.002 200.71C259.356 200.71 262.304 198.482 263.218 195.254C273.05 160.548 305.143 136.31 341.262 136.31C374.841 136.31 404.942 157.282 416.896 188.138L325.593 214.065C322.008 215.083 319.715 218.579 320.208 222.273C320.701 225.967 323.831 228.738 327.558 228.78C342.782 228.95 357.26 233.544 369.544 241.925C369.623 241.98 369.704 242.031 369.784 242.082C373.892 244.907 377.751 248.158 381.308 251.812C403.21 274.313 408.876 308.1 396.182 336.286L331.243 298.92C328.704 297.459 325.548 297.61 323.16 299.306C320.772 301.002 319.59 303.932 320.133 306.81L336.975 396.135C336.982 396.169 336.987 396.203 336.994 396.237L353.042 481.347C353.115 481.721 353.172 482.101 353.224 482.475C353.549 484.832 354.974 486.895 357.063 488.035C359.153 489.175 361.66 489.254 363.816 488.251C453.648 446.479 512 356.367 512 256C512 115.382 398.263 0 256 0V0ZM151.278 473.119C116.494 456.334 86.959 431.823 64.366 402.19H164.655L151.278 473.119ZM123.171 353.21L180.068 320.472L167.484 387.19H53.806C38.4 363.436 27.175 336.967 20.873 308.925H100.944C101.537 323.238 105.471 337.507 112.932 350.455C114.999 354.042 119.582 355.274 123.171 353.21ZM101.542 293.925H17.994C16.022 281.511 15 268.839 15 256C15 251.737 15.118 247.491 15.336 243.265H124.847C111.702 257.581 103.808 275.407 101.542 293.925V293.925ZM376.093 228.265C370.947 224.938 365.5 222.148 359.817 219.939L428.54 200.424C432.522 199.293 434.836 195.149 433.707 191.165C422.055 150.035 384.04 121.31 341.261 121.31C305.081 121.31 272.31 141.839 256.001 173.039C239.693 141.84 206.921 121.31 170.741 121.31C127.962 121.31 89.947 150.036 78.295 191.165C77.166 195.149 79.48 199.293 83.462 200.424L156.218 221.08C151.52 223.081 147.008 225.499 142.702 228.264H16.585C30.149 109.158 131.259 15 256 15C380.746 15 481.852 109.162 495.415 228.265H376.093ZM366.233 470.366L353.378 402.19H447.579C425.83 430.674 398.101 453.956 366.233 470.366V470.366ZM458.193 387.19H350.551L337.892 320.052L395.52 353.211C399.107 355.276 403.691 354.043 405.758 350.455C413.219 337.506 417.155 323.238 417.749 308.925H491.154C484.939 336.65 473.844 363.122 458.193 387.19V387.19ZM494.018 293.925H417.152C414.886 275.405 406.992 257.58 393.843 243.265H496.664C496.882 247.491 497 251.737 497 256C497 268.781 495.991 281.456 494.018 293.925Z" fill="#EFF316"/>
<path d="M360.65 481.45C328.84 496.24 293.39 504.5 256 504.5C220.85 504.5 187.4 497.2 157.09 484.03C157.19 482.67 157.37 481.29 157.63 479.91L165.62 437.52H352.41L360.4 479.91C360.5 480.42 360.58 480.94 360.65 481.45Z" fill="#6F5410"/>
<path d="M336.25 351.86H181.78L184.65 336.65L190.46 305.84L259.35 266.2L327.5 305.42L333.3 336.23H333.31L336.25 351.86Z" fill="#6F5410"/>
<path d="M333.31 347.23H333.3L281.18 317.23C267.66 309.45 251.03 309.45 237.52 317.23L184.65 347.65L190.46 305.84L259.35 266.2L327.5 305.42L333.31 347.23Z" fill="#090807"/>
<path d="M352.41 437.52H165.62L181.78 351.86H336.25L352.41 437.52Z" fill="#6F5410"/>
<path d="M303.132 392.79C308.301 392.79 312.492 388.599 312.492 383.43C312.492 378.261 308.301 374.07 303.132 374.07C297.963 374.07 293.772 378.261 293.772 383.43C293.772 388.599 297.963 392.79 303.132 392.79Z" fill="#090807"/>
<path d="M278.837 416.158H239.198C235.056 416.158 231.698 412.8 231.698 408.658C231.698 404.516 235.056 401.158 239.198 401.158H278.837C282.98 401.158 286.337 404.516 286.337 408.658C286.337 412.8 282.979 416.158 278.837 416.158Z" fill="#090807"/>
<path d="M214.902 392.79C220.071 392.79 224.262 388.599 224.262 383.43C224.262 378.261 220.071 374.07 214.902 374.07C209.733 374.07 205.542 378.261 205.542 383.43C205.542 388.599 209.733 392.79 214.902 392.79Z" fill="#090807"/>
<path d="M327.64 221.28L426.49 193.21C415.96 156.04 381.79 128.81 341.26 128.81C300.71 128.81 266.53 156.04 256 193.21C245.47 156.04 211.29 128.81 170.74 128.81C130.21 128.81 96.04 156.04 85.51 193.21L185.33 221.55C165.81 223.1 146.75 231.45 132.01 246.58C105.31 274.02 101.21 315.09 119.43 346.71L190.46 305.84L259.35 266.2L327.5 305.42L399.26 346.71C417.48 315.09 413.39 274.02 386.68 246.58C370.51 229.97 349.13 221.52 327.64 221.28V221.28Z" fill="black"/>
<path d="M368.08 480.425C367.991 479.779 367.888 479.12 367.77 478.521L359.78 436.134C359.78 436.133 359.78 436.132 359.78 436.131L343.622 350.48C343.622 350.478 343.622 350.476 343.621 350.474L340.681 334.844C340.657 334.719 340.63 334.594 340.601 334.471L334.871 304.033C334.467 301.88 333.141 300.012 331.242 298.92L263.092 259.7C260.777 258.367 257.926 258.366 255.61 259.7L186.72 299.34C184.822 300.432 183.496 302.299 183.091 304.451L174.411 350.47V350.471L158.251 436.13V436.133L150.261 478.522C149.951 480.169 149.733 481.836 149.612 483.479C149.378 486.658 151.179 489.638 154.103 490.909C186.311 504.904 220.594 512 256 512C293.645 512 329.918 504.01 363.813 488.25C366.799 486.862 368.53 483.688 368.08 480.425V480.425ZM197.191 310.62L259.35 274.853L320.768 310.199L325.93 337.618C325.953 337.743 325.98 337.867 326.009 337.989L327.207 344.36H190.828L197.191 310.62ZM187.998 359.36H330.033L343.364 430.02H174.667L187.998 359.36ZM256 497C224.594 497 194.13 491.072 165.363 479.374L171.839 445.02H346.192L352.224 477.021C321.844 490.281 289.501 497 256 497Z" fill="#090807"/>
<path d="M399.253 354.211C397.983 354.211 396.698 353.889 395.52 353.21L259.35 274.853L123.17 353.21C119.584 355.275 114.998 354.042 112.931 350.454C92.6829 315.315 98.3179 270.45 126.634 241.349C135.13 232.628 145.202 225.773 156.217 221.08L83.4609 200.424C79.4779 199.293 77.1649 195.149 78.2939 191.165C89.9459 150.035 127.961 121.31 170.74 121.31C206.92 121.31 239.692 141.839 256 173.039C272.309 141.84 305.08 121.31 341.26 121.31C384.039 121.31 422.054 150.036 433.706 191.165C434.835 195.149 432.521 199.293 428.539 200.424L359.816 219.939C371.826 224.606 382.795 231.838 392.053 241.348C420.374 270.443 426.009 315.309 405.757 350.454C404.37 352.863 401.847 354.211 399.253 354.211V354.211ZM259.35 258.7C260.642 258.7 261.933 259.033 263.091 259.7L396.18 336.286C408.874 308.1 403.208 274.314 381.306 251.812C367.07 237.188 347.981 229.008 327.556 228.78C323.829 228.738 320.7 225.967 320.206 222.273C319.712 218.579 322.006 215.084 325.591 214.065L416.894 188.138C404.94 157.282 374.839 136.31 341.26 136.31C305.141 136.31 273.048 160.549 263.216 195.254C262.302 198.482 259.355 200.71 256 200.71C252.645 200.71 249.698 198.482 248.784 195.254C238.952 160.548 206.86 136.31 170.74 136.31C137.161 136.31 107.06 157.281 95.1059 188.138L187.378 214.335C190.87 215.326 193.151 218.676 192.793 222.289C192.436 225.902 189.542 228.739 185.923 229.027C167.511 230.489 150.272 238.582 137.381 251.814C115.484 274.318 109.818 308.104 122.509 336.285L255.608 259.7C256.767 259.033 258.059 258.7 259.35 258.7V258.7Z" fill="#252727"/>
</svg>
