<svg width="522" height="478" viewBox="0 0 522 478" fill="none" xmlns="http://www.w3.org/2000/svg">
<path d="M261 44V45H270L261 44ZM244 45L245 46L244 45Z" fill="black"/>
<path d="M194 415C212.772 416.287 230.748 425.186 250.09 425.946C316.56 428.557 380.928 399.452 419.103 344.09C429.617 328.841 437.803 311.592 443.481 294C446.033 286.092 446.061 273.485 451 267C448.856 247.79 453.5 227.646 450.7 208C442.39 149.705 406.286 98.0536 355 69.2384C274.389 23.9468 167.146 45.2076 110.975 119.17C87.8139 149.667 77.5974 182.674 72.7948 220C70.048 241.348 72.1891 266.293 78.3086 287C91.2809 330.896 118.175 367.491 155.285 394.141C166.333 402.076 184.97 405.671 194 415Z" fill="#DB324A"/>
<path d="M249 45V46H256L249 45ZM269 45V46H273L269 45Z" fill="#ADC3D7"/>
<path d="M278 45V46H284L278 45ZM284 46V47H287L284 46ZM226 48V49L232 48H226ZM288 47V48H291L288 47Z" fill="black"/>
<path d="M223.667 48.3335L224.333 48.6669L223.667 48.3335Z" fill="white"/>
<path d="M296.667 48.3333L297.333 48.6667L296.667 48.3333ZM299 48V49H302L299 48Z" fill="black"/>
<path d="M219 49V50H222L219 49ZM307.667 50.3333L308.333 50.6667L307.667 50.3333Z" fill="white"/>
<path d="M211 51L212 52L211 51Z" fill="black"/>
<path d="M310.667 51.3335L311.333 51.6669L310.667 51.3335Z" fill="white"/>
<path d="M206.667 52.3335L207.333 52.6669L206.667 52.3335Z" fill="black"/>
<path d="M314 52L315 53L314 52Z" fill="white"/>
<path d="M201 54V55L206 54H201Z" fill="black"/>
<path d="M318 53L319 54L318 53ZM320 54L321 55L320 54Z" fill="white"/>
<path d="M199.667 55.3333L200.333 55.6667L199.667 55.3333ZM325 55L326 56L325 55ZM196.667 56.3333L197.333 56.6667L196.667 56.3333ZM328 56L329 57L328 56ZM329.667 57.3333L330.333 57.6667L329.667 57.3333Z" fill="black"/>
<path d="M190 58V59H193L190 58ZM331.667 58.3333L332.333 58.6667L331.667 58.3333ZM188.667 59.3333L189.333 59.6667L188.667 59.3333Z" fill="white"/>
<path d="M333 59V60H336L333 59ZM185 60L186 61L185 60Z" fill="black"/>
<path d="M337 60L338 61L337 60Z" fill="white"/>
<path d="M181 62V63H184L181 62Z" fill="black"/>
<path d="M341 62L342 63L341 62ZM343.667 63.3333L344.333 63.6667L343.667 63.3333ZM346 64L347 65L346 64ZM175.667 65.3333L176.333 65.6667L175.667 65.3333Z" fill="white"/>
<path d="M347.667 65.3335L348.333 65.6669L347.667 65.3335Z" fill="black"/>
<path d="M173.667 66.3335L174.333 66.6669L173.667 66.3335Z" fill="white"/>
<path d="M349.667 66.3335L350.333 66.6669L349.667 66.3335Z" fill="black"/>
<path d="M171.667 67.3335L172.333 67.6669L171.667 67.3335Z" fill="white"/>
<path d="M351.667 67.3335L352.333 67.6669L351.667 67.3335Z" fill="black"/>
<path d="M170 68L171 69L170 68Z" fill="white"/>
<path d="M166.667 70.3335L167.333 70.6669L166.667 70.3335ZM356.667 70.3335L357.333 70.6669L356.667 70.3335ZM163.667 72.3335L164.333 72.6669L163.667 72.3335Z" fill="black"/>
<path d="M360 72L361 73L360 72Z" fill="white"/>
<path d="M361.667 73.3335L362.333 73.6669L361.667 73.3335Z" fill="black"/>
<path d="M160 74L161 75L160 74Z" fill="white"/>
<path d="M363.667 74.3335L364.333 74.6669L363.667 74.3335Z" fill="black"/>
<path d="M158 75L159 76L158 75ZM365 75L366 76L365 75ZM157 76L158 77L157 76ZM366 76L367 77L366 76ZM368 77L369 78L368 77Z" fill="white"/>
<path d="M369.667 78.3335L370.333 78.6669L369.667 78.3335Z" fill="black"/>
<path d="M374 81L375 82L374 81ZM148 82L149 83L148 82ZM375 82L376 83L375 82ZM376 83L377 84L376 83Z" fill="white"/>
<path d="M145.667 84.3335L146.333 84.6669L145.667 84.3335Z" fill="black"/>
<path d="M378 84L379 85L378 84ZM379 85L380 86L379 85ZM380 86L381 87L380 86ZM142 87L143 88L142 87ZM141 88L142 89L141 88ZM384 89L385 90L384 89ZM386 91L387 92L386 91ZM387 92L388 93L387 92ZM133.667 94.3333L134.333 94.6667L133.667 94.3333Z" fill="white"/>
<path d="M130 97L129 99H131L130 97Z" fill="black"/>
<path d="M393 97L394 98L393 97ZM394 98L395 99L394 98Z" fill="white"/>
<path d="M128 99L129 100L128 99Z" fill="black"/>
<path d="M395 99L396 100L395 99ZM396 100L397 101L396 100ZM397 101L398 102L397 101ZM398 102L399 103L398 102Z" fill="white"/>
<path d="M124 103L125 104L124 103Z" fill="black"/>
<path d="M399 103L400 104L399 103ZM123 105L124 106L123 105Z" fill="white"/>
<path d="M120 107L119 110L120 107Z" fill="#ADC3D7"/>
<path d="M404 109L405 110L404 109ZM405 110L406 111L405 110ZM407 112L408 113L407 112ZM114 114L115 115L114 114ZM113 116L114 117L113 116ZM410 116L411 117L410 116ZM411 117L412 118L411 117ZM412 119L413 120L412 119Z" fill="white"/>
<path d="M109 121L110 122L109 121Z" fill="black"/>
<path d="M106 125L107 126L106 125ZM105 127L106 128L105 127Z" fill="white"/>
<path d="M104 128L105 129L104 128Z" fill="black"/>
<path d="M419 128L420 129L419 128Z" fill="white"/>
<path d="M103.333 129.667L103.667 130.333L103.333 129.667Z" fill="black"/>
<path d="M420 130L421 131L420 130ZM102 131L103 132L102 131ZM101 133L102 134L101 133ZM100 134L101 135L100 134ZM98 138L99 139L98 138Z" fill="white"/>
<path d="M97 139L98 140L97 139Z" fill="black"/>
<path d="M96.3333 140.667L96.6667 141.333L96.3333 140.667ZM427 141L428 142L427 141ZM95.3333 142.667L95.6667 143.333L95.3333 142.667ZM94.3333 144.667L94.6667 145.333L94.3333 144.667ZM93 146L94 147L93 146Z" fill="white"/>
<path d="M194.667 146.333L195.333 146.667L194.667 146.333Z" fill="black"/>
<path d="M196.039 146.483C160.662 152.435 167.637 206.97 203 201.56C238.163 196.181 230.99 140.603 196.039 146.483Z" fill="white"/>
<path d="M202.667 146.333L203.333 146.667L202.667 146.333Z" fill="white"/>
<path d="M319.667 146.333L320.333 146.667L319.667 146.333Z" fill="black"/>
<path d="M321 146.468C285.471 152.954 293.642 207.748 329 201.384C363.917 195.1 355.506 140.169 321 146.468Z" fill="white"/>
<path d="M190 147L191 148L190 147ZM192 147L193 148L192 147ZM316 147L317 148L316 147ZM189 148L190 149L189 148ZM314 148L315 149L314 148ZM431 148L432 149L431 148ZM186 149L187 150L186 149ZM311 149L312 150L311 149ZM337 149L338 150L337 149ZM184 150L185 151L184 150ZM214 150L215 151L214 150ZM339 150L340 151L339 150ZM432 150L433 151L432 150ZM183 151L184 152L183 151ZM215 151L216 152L215 151ZM308 151L309 152L308 151ZM341 151L342 152L341 151Z" fill="white"/>
<path d="M90 152L91 153L90 152Z" fill="black"/>
<path d="M182 152L183 153L182 152ZM216 152L217 153L216 152ZM307 152L308 153L307 152ZM433 152L434 153L433 152ZM89.3333 153.667L89.6667 154.333L89.3333 153.667ZM306 153L307 154L306 153ZM179 154L180 155L179 154ZM305 154L306 155L305 154ZM344 154L345 155L344 154Z" fill="white"/>
<path d="M88 155V158H89L88 155Z" fill="black"/>
<path d="M345 155L346 156L345 155ZM221 157L222 158L221 157ZM302 157L303 158L302 157ZM346 157L347 158L346 157ZM176 158L177 159L176 158ZM222 158L223 159L222 158ZM347 158L348 159L347 158ZM348 159L349 160L348 159ZM175 160L176 161L175 160ZM223 160L224 161L223 160ZM300 160L301 161L300 160Z" fill="white"/>
<path d="M86 161L87 162L86 161Z" fill="black"/>
<path d="M349 161L350 162L349 161ZM437 161L438 162L437 161ZM85.3333 162.667L85.6667 163.333L85.3333 162.667ZM224 162L225 163L224 162ZM299 162L300 163L299 162ZM173 163L174 164L173 163ZM438.333 163.667L438.667 164.333L438.333 163.667ZM225 164L226 165L225 164ZM350 164L351 165L350 164Z" fill="white"/>
<path d="M84.3333 166.667L84.6667 167.333L84.3333 166.667Z" fill="black"/>
<path d="M172 166L173 167L172 166Z" fill="white"/>
<path d="M226.333 166.667L226.667 167.333L226.333 166.667ZM351.333 166.667L351.667 167.333L351.333 166.667Z" fill="black"/>
<path d="M83 168V171H84L83 168Z" fill="white"/>
<path d="M297.333 168.667L297.667 169.333L297.333 168.667Z" fill="black"/>
<path d="M82 171L83 172L82 171Z" fill="white"/>
<path d="M442.333 173.667L442.667 174.333L442.333 173.667ZM255 174V175H258L255 174Z" fill="black"/>
<path d="M258 174.428C237.645 177.312 221.525 193.038 220.091 214C218.513 237.071 241.365 260.954 265 257.699C280.196 255.606 295.621 246.004 301.038 231C311.03 203.323 288.81 170.064 258 174.428Z" fill="white"/>
<path d="M251 175L252 176L251 175Z" fill="white"/>
<path d="M80 176V179H81L80 176Z" fill="black"/>
<path d="M247 176L248 177L247 176ZM243 178L244 179L243 178ZM280 178L281 179L280 178ZM241 179L242 180L241 179Z" fill="white"/>
<path d="M444 179V182H445L444 179Z" fill="black"/>
<path d="M284 180L285 181L284 180Z" fill="white"/>
<path d="M351.333 180.667L351.667 181.333L351.333 180.667Z" fill="#ADC3D7"/>
<path d="M172 181L173 182L172 181ZM238 181L239 182L238 181Z" fill="white"/>
<path d="M78 182L79 183L78 182Z" fill="black"/>
<path d="M237 182L238 183L237 182Z" fill="white"/>
<path d="M445 182L446 183L445 182Z" fill="black"/>
<path d="M235 183L236 184L235 183ZM288 183L289 184L288 183ZM234 184L235 185L234 184Z" fill="white"/>
<path d="M77.3333 185.667L77.6667 186.333L77.3333 185.667Z" fill="black"/>
<path d="M224 185L225 186L224 185ZM291 186L292 187L291 186ZM349 186L350 187L349 186ZM231 187L232 188L231 187ZM292 187L293 188L292 187ZM175 188L176 189L175 188ZM300 188L301 189L300 188ZM348 188L349 189L348 188ZM176 189L177 190L176 189ZM222 189L223 190L222 189ZM294 189L295 190L294 189ZM347 189L348 190L347 189Z" fill="white"/>
<path d="M76 190L77 191L76 190Z" fill="black"/>
<path d="M221 190L222 191L221 190ZM229 190L230 191L229 190ZM302 190L303 191L302 190ZM346 190L347 191L346 190ZM228 191L229 192L228 191ZM76.3333 192.667L76.6667 193.333L76.3333 192.667ZM227 192L228 193L227 192ZM345 192L346 193L345 192ZM179 193L180 194L179 193ZM297 193L298 194L297 193ZM305 193L306 194L305 193ZM344 193L345 194L344 193Z" fill="white"/>
<path d="M448.333 193.667L448.667 194.333L448.333 193.667Z" fill="black"/>
<path d="M306 194L307 195L306 194Z" fill="white"/>
<path d="M75 195V198H76L75 195Z" fill="black"/>
<path d="M182 195L183 196L182 195ZM216 195L217 196L216 195ZM298 195L299 196L298 195ZM307 195L308 196L307 195ZM183 196L184 197L183 196ZM215 196L216 197L215 196ZM308 196L309 197L308 196ZM341 196L342 197L341 196ZM184 197L185 198L184 197ZM214 197L215 198L214 197ZM299 197L300 198L299 197ZM339 197L340 198L339 197ZM186 198L187 199L186 198Z" fill="white"/>
<path d="M212 198L213 199L212 198Z" fill="black"/>
<path d="M311 198L312 199L311 198ZM337 198L338 199L337 198Z" fill="white"/>
<path d="M449.333 198.667L449.667 199.333L449.333 198.667Z" fill="black"/>
<path d="M187 199L188 200L187 199ZM313 199L314 200L313 199ZM190 200L191 201L190 200Z" fill="white"/>
<path d="M194.667 201.333L195.333 201.667L194.667 201.333Z" fill="black"/>
<path d="M301 201L302 202L301 201Z" fill="white"/>
<path d="M319.667 201.333L320.333 201.667L319.667 201.333ZM74 202L73 208H74V202Z" fill="black"/>
<path d="M221 244C217.024 232.077 213 222.831 213 210C202.567 210.823 194.108 211.353 184 207.961C179.492 206.449 172.849 200.903 168.04 203.068C161.679 205.932 160.463 214.039 159.12 220C155.543 235.864 156.41 253.539 175 257.482C194.125 261.539 202.675 244.38 221 244Z" fill="white"/>
<path d="M172 202L173 203L172 202ZM351 202L352 203L351 202Z" fill="white"/>
<path d="M310 210C312.966 222.46 307.049 232.684 303 244C321.357 244.381 330.727 261.682 350 257.32C368.315 253.175 367.235 237.985 365.282 223C364.422 216.408 363.445 207.127 356.895 203.449C351.42 200.375 344.117 206.441 339 208.305C328.981 211.954 320.297 210.213 310 210Z" fill="white"/>
<path d="M356 202L357 203L356 202ZM166 203L167 204L166 203ZM174 203L175 204L174 203ZM357 203L358 204L357 203ZM165 204L166 205L165 204ZM347 204L348 205L347 204ZM164 205L165 206L164 205ZM178 205L179 206L178 205Z" fill="white"/>
<path d="M221.333 205.667L221.667 206.333L221.333 205.667Z" fill="black"/>
<path d="M302 205L303 206L302 205ZM345 205L346 206L345 205ZM179 206L180 207L179 206ZM360 206L361 207L360 206ZM163 207L164 208L163 207ZM182 207L183 208L182 207Z" fill="white"/>
<path d="M340.667 207.333L341.333 207.667L340.667 207.333Z" fill="black"/>
<path d="M213 208L209 209V210L213 208Z" fill="white"/>
<path d="M220 208V211H221L220 208Z" fill="black"/>
<path d="M302 208L303 209L302 208ZM361 208L362 209L361 208Z" fill="white"/>
<path d="M73 209V212H74L73 209ZM161.333 209.667L161.667 210.333L161.333 209.667Z" fill="black"/>
<path d="M310 209V210H314L310 209ZM335 209L336 210L335 209Z" fill="white"/>
<path d="M451 209V213H452L451 209ZM303 210V213H304L303 210ZM331.667 210.333L332.333 210.667L331.667 210.333Z" fill="black"/>
<path d="M363 212L364 213L363 212Z" fill="white"/>
<path d="M451 215V219H452L451 215ZM303 218V222H304L303 218Z" fill="#ADC3D7"/>
<path d="M310 218V222H311L310 218Z" fill="black"/>
<path d="M72 219L71 224H72V219Z" fill="#ADC3D7"/>
<path d="M452 219V226H453L452 219ZM158.333 221.667L158.667 222.333L158.333 221.667ZM221.333 224.667L221.667 225.333L221.333 224.667Z" fill="black"/>
<path d="M302 224V227H303L302 224ZM365 224L366 225L365 224ZM309 227L310 228L309 227Z" fill="white"/>
<path d="M71 228V242H72L71 228Z" fill="black"/>
<path d="M215 230L216 231L215 230ZM308 231L309 232L308 231ZM366.333 231.667L366.667 232.333L366.333 231.667Z" fill="white"/>
<path d="M216 233L217 234L216 233Z" fill="black"/>
<path d="M307 233L308 234L307 233ZM298 236L299 237L298 236ZM218 237L219 238L218 237ZM226 237L227 238L226 237ZM305 238L306 239L305 238ZM227 239L228 240L227 239Z" fill="white"/>
<path d="M296 239L297 240L296 239Z" fill="black"/>
<path d="M219 240L220 241L219 240ZM295 240L296 241L295 240ZM304 240L305 241L304 240ZM220 241L221 242L220 241ZM229 241L230 242L229 241ZM294 241L295 242L294 241ZM303 241L304 242L303 241ZM221.333 242.667L221.667 243.333L221.333 242.667ZM293 242L294 243L293 242ZM302.333 242.667L302.667 243.333L302.333 242.667Z" fill="white"/>
<path d="M452 243L453 244L452 243ZM313 245L314 246L313 245Z" fill="black"/>
<path d="M158 246L159 247L158 246ZM208 246L209 247L208 246ZM290 246L291 247L290 246ZM159 247L160 248L159 247ZM205 247L206 248L205 247ZM288 247L289 248L288 247ZM318 247L319 248L318 247Z" fill="white"/>
<path d="M72 248V252H73L72 248Z" fill="black"/>
<path d="M203 248L204 249L203 248ZM236 248L237 249L236 248ZM287 248L288 249L287 248ZM320 248L321 249L320 248ZM160 249L161 250L160 249ZM201 249L202 250L201 249ZM286 249L287 250L286 249ZM200 250L201 251L200 250ZM238 250L239 251L238 250ZM199 251L200 252L199 251Z" fill="white"/>
<path d="M216 251.468C191.652 256.05 186 287.549 186 308C186 318.818 186.706 328.284 196.004 335.468C205.533 342.83 217.712 341 229 341H288C297.196 341 308.032 342.558 317 340.402C350.818 332.271 341.795 272.98 319.711 256.548C298.894 241.059 280.051 268.91 257 265.572C243.172 263.569 229.423 248.941 216 251.468Z" fill="white"/>
<path d="M225 251L226 252L225 251ZM240 251L241 252L240 251ZM283 251L284 252L283 251ZM299 251L300 252L299 251ZM361 251L362 252L361 251ZM163 252L164 253L163 252ZM242 252L243 253L242 252ZM281 252L282 253L281 252ZM312 252L313 253L312 252ZM164 253L165 254L164 253ZM197 253L198 254L197 253ZM243 253L244 254L243 253ZM280 253L281 254L280 253ZM327 253L328 254L327 253Z" fill="white"/>
<path d="M72 254V260H73L72 254Z" fill="black"/>
<path d="M229 254L230 255L229 254ZM316 254L317 255L316 254ZM328 254L329 255L328 254ZM168 255L169 256L168 255ZM194 255L195 256L194 255ZM205 255L206 256L205 255ZM292 255L293 256L292 255ZM329 255L330 256L329 255ZM204 256L205 257L204 256Z" fill="white"/>
<path d="M173.667 257.333L174.333 257.667L173.667 257.333Z" fill="black"/>
<path d="M193 257L194 258L193 257ZM203 257L204 258L203 257ZM202 258L203 259L202 258ZM288 258L289 259L288 258ZM321 258L322 259L321 258ZM201 259L202 260L201 259ZM237 259L238 260L237 259ZM286 259L287 260L286 259ZM323 259L324 260L323 259Z" fill="white"/>
<path d="M73.3333 260.667L73.6667 261.333L73.3333 260.667Z" fill="black"/>
<path d="M200 260L201 261L200 260ZM240 260L241 261L240 260ZM284 260L285 261L284 260ZM199 261L200 262L199 261ZM241 261L242 262L241 261ZM282 261L283 262L282 261Z" fill="white"/>
<path d="M451.333 261.667L451.667 262.333L451.333 261.667Z" fill="black"/>
<path d="M198 262L199 263L198 262ZM244 262L245 263L244 262Z" fill="white"/>
<path d="M278.667 262.333L279.333 262.667L278.667 262.333Z" fill="black"/>
<path d="M325 262L326 263L325 262ZM197 263L198 264L197 263ZM276 263L277 264L276 263ZM326 263L327 264L326 263Z" fill="white"/>
<path d="M450.333 263.667L450.667 264.333L450.333 263.667Z" fill="black"/>
<path d="M196 265L197 266L196 265Z" fill="white"/>
<path d="M266 265V266H269L266 265Z" fill="black"/>
<path d="M195 266L196 267L195 266ZM328 266L329 267L328 266Z" fill="white"/>
<path d="M449.333 267.667L449.667 268.333L449.333 267.667ZM74 270V274H75L74 270Z" fill="black"/>
<path d="M193 270L194 271L193 270Z" fill="white"/>
<path d="M75 274V277H76L75 274Z" fill="black"/>
<path d="M191 274L192 275L191 274ZM448 274L449 275L448 274ZM76 277V280H77L76 277ZM190 277L191 278L190 277Z" fill="white"/>
<path d="M447.333 278.667L447.667 279.333L447.333 278.667Z" fill="black"/>
<path d="M334 280L335 281L334 280ZM189 281L190 282L189 281Z" fill="white"/>
<path d="M447.333 281.667L447.667 282.333L447.333 281.667ZM446.333 283.667L446.667 284.333L446.333 283.667Z" fill="black"/>
<path d="M335 284L336 285L335 284Z" fill="white"/>
<path d="M445.333 285.667L445.667 286.333L445.333 285.667Z" fill="black"/>
<path d="M444 290L445 291L444 290ZM79 291L80 292L79 291ZM80.3333 292.667L80.6667 293.333L80.3333 292.667Z" fill="white"/>
<path d="M337.333 292.667L337.667 293.333L337.333 292.667ZM443.333 294.667L443.667 295.333L443.333 294.667ZM81 296V299H82L81 296Z" fill="black"/>
<path d="M186 296L187 297L186 296Z" fill="white"/>
<path d="M442.333 296.667L442.667 297.333L442.333 296.667Z" fill="black"/>
<path d="M441 299L442 300L441 299Z" fill="white"/>
<path d="M83 300V304H84L83 300Z" fill="black"/>
<path d="M338 302V306H339L338 302Z" fill="#ADC3D7"/>
<path d="M440 302L441 303L440 302ZM84 305L85 306L84 305Z" fill="white"/>
<path d="M438 306V309H439L438 306Z" fill="black"/>
<path d="M85 307L86 308L85 307Z" fill="white"/>
<path d="M437 309V312H438L437 309Z" fill="black"/>
<path d="M86 310L87 311L86 310Z" fill="white"/>
<path d="M87.3333 311.667L87.6667 312.333L87.3333 311.667Z" fill="black"/>
<path d="M88 314L89 315L88 314Z" fill="white"/>
<path d="M338 315V318H339L338 315ZM434.333 316.667L434.667 317.333L434.333 316.667ZM433.333 318.667L433.667 319.333L433.333 318.667Z" fill="black"/>
<path d="M91 320L92 321L91 320Z" fill="white"/>
<path d="M432.333 320.667L432.667 321.333L432.333 320.667ZM92.3333 322.667L92.6667 323.333L92.3333 322.667Z" fill="black"/>
<path d="M337 322L338 323L337 322ZM431 323L432 324L431 323ZM187 324L188 325L187 324Z" fill="white"/>
<path d="M336 324L337 325L336 324Z" fill="black"/>
<path d="M430 324L431 325L430 324Z" fill="white"/>
<path d="M188 326L189 327L188 326ZM95.3333 327.667L95.6667 328.333L95.3333 327.667Z" fill="black"/>
<path d="M334 328L335 329L334 328ZM428 328L429 329L428 328ZM333 329L334 330L333 329ZM427 329L428 330L427 329ZM191 331L192 332L191 331Z" fill="white"/>
<path d="M426.333 331.667L426.667 332.333L426.333 331.667Z" fill="black"/>
<path d="M331 332L332 333L331 332ZM193 333L194 334L193 333ZM330 333L331 334L330 333ZM194 334L195 335L194 334ZM424 335L425 336L424 335ZM326 336L327 337L326 336ZM423 336L424 337L423 336Z" fill="white"/>
<path d="M101.333 337.667L101.667 338.333L101.333 337.667ZM422.333 338.667L422.667 339.333L422.333 338.667Z" fill="black"/>
<path d="M102 339L103 340L102 339ZM103 341L104 342L103 341Z" fill="white"/>
<path d="M104 343L106 345V343H104ZM106.333 345.667L106.667 346.333L106.333 345.667ZM415.333 348.667L415.667 349.333L415.333 348.667Z" fill="black"/>
<path d="M109 349L110 350L109 349ZM112 353L113 354L112 353Z" fill="white"/>
<path d="M411.333 353.667L411.667 354.333L411.333 353.667ZM113.333 354.667L113.667 355.333L113.333 354.667Z" fill="black"/>
<path d="M114 356L115 357L114 356ZM115 357L116 358L115 357ZM116 358L117 359L116 358Z" fill="white"/>
<path d="M404 362L407 360L404 362Z" fill="black"/>
<path d="M118 361L119 362L118 361ZM119 362L120 363L119 362ZM120 363L121 364L120 363ZM121 364L122 365L121 364ZM401 365L402 366L401 365ZM124 367L125 368L124 367ZM125 368L126 369L125 368Z" fill="white"/>
<path d="M397 369L396 371H398L397 369Z" fill="black"/>
<path d="M127 370L128 371L127 370ZM128 371L129 372L128 371ZM129 372L130 373L129 372ZM130 373L131 374L130 373ZM131 374L132 375L131 374ZM132 375L133 376L132 375ZM391 375L392 376L391 375Z" fill="white"/>
<path d="M133.667 376.333L134.333 376.667L133.667 376.333Z" fill="black"/>
<path d="M135 378L136 379L135 378Z" fill="white"/>
<path d="M387 378L386 380H388L387 378Z" fill="black"/>
<path d="M140 382L141 383L140 382Z" fill="white"/>
<path d="M383.667 382.333L384.333 382.667L383.667 382.333ZM380.667 384.333L381.333 384.667L380.667 384.333Z" fill="black"/>
<path d="M145 386L146 387L145 386ZM146 387L147 388L146 387ZM147 388L148 389L147 388Z" fill="white"/>
<path d="M375.667 388.333L376.333 388.667L375.667 388.333ZM148.667 389.333L149.333 389.667L148.667 389.333ZM150 390L153 392L150 390Z" fill="black"/>
<path d="M372 390L373 391L372 390ZM153 392L154 393L153 392Z" fill="white"/>
<path d="M368.667 393.333L369.333 393.667L368.667 393.333ZM158 396V397H161L158 396Z" fill="black"/>
<path d="M364 396L365 397L364 396ZM362 397L363 398L362 397ZM361 398L362 399L361 398Z" fill="white"/>
<path d="M163.667 399.333L164.333 399.667L163.667 399.333ZM165.667 400.333L166.333 400.667L165.667 400.333ZM357.667 400.333L358.333 400.667L357.667 400.333Z" fill="black"/>
<path d="M167.667 401.333L168.333 401.667L167.667 401.333ZM354 402L355 403L354 402ZM352 403L353 404L352 403Z" fill="white"/>
<path d="M172 404V405H175L172 404Z" fill="black"/>
<path d="M350 404L351 405L350 404Z" fill="white"/>
<path d="M346 407L349 405L346 407Z" fill="black"/>
<path d="M179 407L180 408L179 407Z" fill="white"/>
<path d="M344.667 407.333L345.333 407.667L344.667 407.333ZM342.667 408.333L343.333 408.667L342.667 408.333Z" fill="black"/>
<path d="M183 409L184 410L183 409ZM340 409L341 410L340 409ZM338 410L339 411L338 410Z" fill="white"/>
<path d="M335.667 411.333L336.333 411.667L335.667 411.333Z" fill="black"/>
<path d="M191 412L194 414L191 412Z" fill="#ADC3D7"/>
<path d="M332 412V413H335L332 412Z" fill="black"/>
<path d="M328 414L329 415L328 414Z" fill="white"/>
<path d="M318 417V418H322L318 417ZM206 418V419H209L206 418Z" fill="black"/>
<path d="M212 419L213 420L212 419Z" fill="white"/>
<path d="M309 421L312 419L309 421ZM303.667 421.333L304.333 421.667L303.667 421.333ZM306 421V422H309L306 421ZM221.667 422.333L222.333 422.667L221.667 422.333ZM224.667 422.333L225.333 422.667L224.667 422.333ZM291.667 423.333L292.333 423.667L291.667 423.333ZM295 423L296 424L295 423ZM235 424V425L241 426V425L235 424ZM287.667 424.333L288.333 424.667L287.667 424.333ZM249 426V427H252L249 426ZM261 426L262 427L261 426ZM264 426L265 427L264 426ZM266 426V427H270L266 426Z" fill="black"/>
</svg>
