<svg width="511" height="511" viewBox="0 0 511 511" fill="none" xmlns="http://www.w3.org/2000/svg">
<path d="M78.5904 485.842H432.42C459.756 485.846 485.126 471.642 499.412 448.339C513.702 425.036 514.848 395.984 502.446 371.624L325.8 69.209C312.536 42.6729 285.454 25.8714 255.786 25.77C226.118 25.6686 198.923 42.2829 185.48 68.7293L8.2994 372.104C-3.88442 396.464 -2.5818 425.399 11.7354 448.569C26.0564 471.739 51.3523 485.842 78.5904 485.842V485.842ZM23.2757 380.208L200.456 76.8336C210.931 55.8941 232.378 42.7119 255.79 42.8133C279.202 42.9147 300.532 56.288 310.824 77.3172L487.474 379.729C497.013 398.808 495.995 421.467 484.783 439.614C473.566 457.761 453.754 468.806 432.42 468.802H78.5904C57.3545 468.799 37.6201 457.855 26.3723 439.841C15.1245 421.83 13.9545 399.291 23.2757 380.208V380.208Z" fill="#DB324A"/>
<path d="M255.505 443.241C279.035 443.241 298.106 424.17 298.106 400.645C298.106 377.116 279.035 358.044 255.505 358.044C231.98 358.044 212.909 377.116 212.909 400.645C212.936 424.158 231.992 443.214 255.505 443.241ZM255.505 375.084C269.624 375.084 281.066 386.527 281.066 400.645C281.066 414.759 269.624 426.202 255.505 426.202C241.391 426.202 229.948 414.759 229.948 400.645C229.964 386.534 241.399 375.099 255.505 375.084V375.084Z" fill="#DB324A"/>
<path d="M255.505 341.005C279.023 340.978 298.079 321.922 298.106 298.405V136.528C298.106 113.003 279.035 93.9316 255.505 93.9316C231.98 93.9316 212.909 113.003 212.909 136.528V298.405C212.936 321.922 231.992 340.978 255.505 341.005ZM229.948 136.528C229.948 122.414 241.391 110.971 255.505 110.971C269.624 110.971 281.066 122.414 281.066 136.528V298.405C281.066 312.523 269.624 323.966 255.505 323.966C241.391 323.966 229.948 312.523 229.948 298.405V136.528Z" fill="#DB324A"/>
</svg>
